PathFileType   4   (X/Y/Z)
DataRate	CameraRate	NumFrames	NumMarkers	Units	OrigDataRate	OrigDataStartFrame	OrigNumFrames
120.0	120.0	11	37	mm	120.0	73	194
Frame#	Time	midhip	hip_r	hip_l	knee_r	knee_l	ankle_r	ankle_l	midasis	asis_r	asis_l	psis_r	psis_l	epicondLat_r	epicondLat_l	epicondMed_r	epicondMed_l	malleolusLat_r	malleolusLat_l	malleolusMedv_r	malleolusMedv_l	neck	subclavicle_r	subclavicle_l	sternalnotch	xyphoidprocess	thighwand_r	thighwand_l	upperleg1_r	upperleg1_l	upperleg2_r	upperleg2_l	shankwand_r	shankwand_l	lowerleg1_r	lowerleg1_l	toe_r	toe_l
 	 	X1	Y1	Z1	X2	Y2	Z2	X3	Y3	Z3	X4	Y4	Z4	X5	Y5	Z5	X6	Y6	Z6	X7	Y7	Z7	X8	Y8	Z8	X9	Y9	Z9	X10	Y10	Z10	X11	Y11	Z11	X12	Y12	Z12	X13	Y13	Z13	X14	Y14	Z14	X15	Y15	Z15	X16	Y16	Z16	X17	Y17	Z17	X18	Y18	Z18	X19	Y19	Z19	X20	Y20	Z20	X21	Y21	Z21	X22	Y22	Z22	X23	Y23	Z23	X24	Y24	Z24	X25	Y25	Z25	X26	Y26	Z26	X27	Y27	Z27	X28	Y28	Z28	X29	Y29	Z29	X30	Y30	Z30	X31	Y31	Z31	X32	Y32	Z32	X33	Y33	Z33	X34	Y34	Z34	X35	Y35	Z35	X36	Y36	Z36	X37	Y37	Z37

	73	0.97500	426.078	758.893	-280.182	411.293	760.354	-199.950	403.652	764.816	-355.328	576.239	409.681	-211.500	338.460	420.101	-325.551	701.753	72.850	-195.555	242.619	64.009	-300.135	536.580	832.195	-281.989	542.773	828.578	-156.059	530.387	835.812	-407.918	296.309	906.456	-231.111	289.428	909.652	-285.798	585.991	411.937	-140.704	334.007	414.796	-396.715	559.404	389.464	-287.264	333.060	416.013	-242.873	695.325	72.251	-157.600	226.423	65.800	-336.117	699.866	82.145	-232.997	241.991	84.348	-259.930	335.820	1331.477	-272.527	462.523	1255.418	-240.317	456.273	1255.480	-322.892	441.303	1251.422	-292.480	487.835	1174.094	-294.816	657.601	598.628	-152.483	549.722	554.121	-352.919	609.922	602.711	-167.836	506.823	579.437	-360.305	620.697	526.346	-176.624	474.610	515.237	-351.710	730.204	239.766	-181.205	248.671	165.849	-411.817	684.827	229.045	-189.015	252.453	180.035	-365.821	806.534	93.536	-193.170	338.579	45.838	-313.199
	74	0.98333	430.778	758.834	-279.345	415.964	760.426	-199.110	408.378	764.629	-354.497	580.751	409.380	-211.406	341.286	420.195	-325.257	701.952	71.166	-196.336	242.955	64.655	-300.482	541.335	832.028	-281.230	547.481	828.623	-155.342	535.189	835.433	-407.118	301.020	906.549	-230.529	294.244	909.718	-285.288	590.522	411.487	-140.609	336.972	414.993	-396.437	563.700	389.680	-286.539	337.173	414.839	-242.388	695.920	70.698	-158.314	226.881	66.590	-336.512	700.733	79.552	-233.688	242.939	84.820	-260.383	340.850	1331.214	-270.975	467.620	1255.401	-239.373	460.692	1255.845	-321.647	446.091	1251.386	-291.383	492.590	1174.371	-294.349	662.561	598.368	-151.904	553.334	553.371	-351.999	614.663	602.701	-166.797	510.413	579.611	-359.347	625.581	526.291	-175.958	478.138	514.705	-350.919	732.492	237.656	-182.576	250.056	166.666	-412.071	686.827	226.395	-190.556	254.084	180.410	-366.222	806.930	90.347	-195.676	338.851	45.897	-313.322
	75	0.99167	435.519	758.802	-278.430	420.657	760.545	-198.191	413.186	764.453	-353.592	585.188	409.179	-211.278	344.190	420.302	-324.926	702.415	69.729	-197.062	243.295	65.370	-300.863	546.148	831.881	-280.359	552.198	828.715	-154.508	540.097	835.046	-406.211	305.785	906.681	-229.985	299.142	909.816	-284.762	594.982	411.128	-140.478	340.027	415.206	-396.122	567.986	390.201	-286.282	340.757	414.081	-241.899	696.762	69.371	-158.981	227.350	67.456	-336.941	701.584	77.509	-234.357	243.336	85.540	-260.802	345.528	1330.859	-269.406	472.340	1255.502	-239.025	465.225	1255.955	-320.259	450.889	1251.382	-290.253	497.389	1174.559	-293.609	667.602	598.057	-151.261	557.009	552.629	-350.994	620.098	602.438	-165.885	514.145	579.167	-358.069	630.683	526.287	-175.349	481.789	514.392	-350.026	734.873	235.857	-183.843	251.492	167.541	-412.300	689.178	224.283	-191.694	255.519	181.318	-366.477	807.609	87.322	-197.869	339.138	45.954	-313.436
	76	1.00000	440.293	758.799	-277.424	425.380	760.710	-197.183	418.066	764.297	-352.599	589.479	409.079	-211.097	347.173	420.422	-324.560	703.217	68.558	-197.707	243.642	66.161	-301.256	551.021	831.750	-279.378	556.942	828.846	-153.552	545.099	834.655	-405.203	310.612	906.861	-229.471	304.121	909.958	-284.215	599.309	410.864	-140.298	343.164	415.442	-395.774	571.970	391.087	-286.147	342.656	414.339	-242.280	697.921	68.288	-159.574	227.833	68.404	-337.385	702.171	76.417	-235.068	242.930	86.325	-261.072	349.884	1330.518	-267.817	477.262	1255.720	-238.381	470.360	1255.795	-319.019	455.715	1251.437	-289.094	502.861	1174.678	-292.269	672.678	597.674	-150.570	560.750	551.901	-349.931	625.819	602.234	-164.684	517.938	578.058	-356.847	635.983	526.191	-174.707	485.215	514.158	-349.363	737.380	234.409	-184.970	252.974	168.477	-412.507	691.379	223.406	-192.486	256.531	182.333	-366.393	808.647	84.538	-199.645	339.446	46.011	-313.530
	77	1.00833	445.113	758.827	-276.310	430.149	760.920	-196.076	423.012	764.167	-351.508	593.575	409.070	-210.849	350.230	420.559	-324.169	704.347	67.634	-198.244	244.009	67.032	-301.647	555.959	831.638	-278.289	561.736	829.010	-152.475	550.183	834.266	-404.104	315.507	907.096	-228.973	309.182	910.148	-283.646	603.460	410.689	-140.054	346.368	415.709	-395.400	573.119	392.112	-285.013	344.547	415.777	-240.652	699.383	67.433	-160.066	228.339	69.435	-337.825	703.328	76.060	-235.756	242.564	87.397	-261.390	354.391	1330.511	-266.714	482.470	1255.861	-236.976	475.161	1255.546	-317.950	460.561	1251.549	-287.919	507.953	1174.615	-290.790	677.736	597.208	-149.842	564.557	551.194	-348.834	631.209	602.247	-163.579	521.895	577.017	-355.726	640.097	525.881	-173.823	488.321	513.398	-348.009	740.015	233.288	-185.925	254.498	169.477	-412.694	693.550	223.682	-193.422	257.509	183.126	-366.700	810.042	82.007	-200.923	339.776	46.070	-313.605
	78	1.01667	449.996	758.893	-275.076	434.983	761.176	-194.865	428.023	764.070	-350.312	597.462	409.139	-210.521	353.359	420.719	-323.757	705.724	66.910	-198.654	244.418	67.979	-302.023	560.970	831.551	-277.102	566.603	829.209	-151.288	555.337	833.892	-402.917	320.469	907.389	-228.467	314.321	910.390	-283.051	607.423	410.588	-139.733	349.628	416.020	-395.005	573.715	392.796	-283.827	347.889	415.998	-238.826	701.063	66.761	-160.438	228.882	70.545	-338.249	704.664	75.978	-236.298	243.391	88.433	-261.857	359.182	1330.774	-265.461	487.425	1256.164	-235.414	479.744	1255.713	-316.867	465.460	1251.719	-286.716	512.657	1174.824	-289.449	682.722	596.657	-149.088	568.432	550.516	-347.728	636.039	602.113	-162.923	525.851	576.337	-354.253	643.452	525.390	-173.041	491.831	512.903	-346.573	742.751	232.425	-186.686	256.058	170.543	-412.863	696.081	224.167	-194.014	259.295	184.123	-367.179	811.725	79.688	-201.657	340.129	46.135	-313.666
	79	1.02500	454.959	759.002	-273.719	439.897	761.476	-193.554	433.099	764.014	-349.014	601.159	409.267	-210.106	356.562	420.908	-323.327	707.229	66.327	-198.925	244.895	68.995	-302.383	566.058	831.498	-275.827	571.560	829.444	-150.007	560.556	833.552	-401.647	325.497	907.741	-227.924	319.534	910.679	-282.423	611.214	410.545	-139.328	352.941	416.381	-394.592	575.260	393.116	-282.528	351.077	415.595	-239.604	702.835	66.215	-160.676	229.481	71.728	-338.648	705.844	75.795	-236.608	243.445	89.600	-262.137	364.239	1330.883	-263.843	492.021	1256.651	-233.844	484.845	1256.159	-315.712	470.433	1251.973	-285.435	517.718	1175.331	-287.866	687.588	596.035	-148.314	572.373	549.874	-346.634	640.784	601.563	-162.093	529.778	576.067	-353.105	647.137	525.050	-172.127	495.814	513.176	-346.104	745.540	231.721	-187.230	257.651	171.675	-413.015	698.817	224.160	-194.062	260.645	185.431	-367.257	813.585	77.503	-201.839	340.503	46.208	-313.723
	80	1.03333	460.013	759.158	-272.254	444.901	761.817	-192.158	438.246	764.010	-347.630	604.709	409.434	-209.606	359.856	421.132	-322.876	708.739	65.826	-199.050	245.465	70.071	-302.729	571.223	831.493	-274.476	576.609	829.718	-148.655	565.838	833.268	-400.298	330.589	908.148	-227.319	324.812	911.006	-281.752	614.870	410.538	-138.840	356.316	416.795	-394.157	575.801	394.168	-281.485	355.380	414.106	-241.265	704.569	65.739	-160.777	230.154	72.977	-339.025	707.397	75.425	-236.715	242.526	91.148	-262.289	369.285	1330.756	-262.404	496.141	1256.888	-232.417	490.071	1256.590	-314.419	475.439	1252.315	-284.104	522.667	1175.733	-286.308	692.296	595.363	-147.532	576.388	549.277	-345.571	645.582	600.798	-160.865	534.038	575.980	-352.073	650.688	524.861	-171.218	500.587	513.530	-345.953	748.326	231.077	-187.540	259.276	172.876	-413.151	701.647	223.851	-194.097	261.346	186.937	-367.262	815.500	75.372	-201.501	340.892	46.297	-313.786
	81	1.04167	465.167	759.360	-270.714	449.992	762.194	-190.704	443.467	764.066	-346.185	608.155	409.616	-209.026	363.264	421.392	-322.400	710.162	65.362	-199.036	246.146	71.196	-303.070	576.463	831.549	-273.065	581.742	830.034	-147.256	571.183	833.063	-398.874	335.742	908.603	-226.631	330.142	911.361	-281.023	618.430	410.549	-138.274	359.774	417.261	-393.696	577.798	395.092	-281.077	358.898	415.616	-240.012	706.158	65.287	-160.745	230.913	74.286	-339.384	709.446	74.760	-236.637	243.465	92.149	-262.586	374.406	1330.688	-260.911	501.036	1257.094	-230.977	495.448	1257.207	-313.035	480.500	1252.701	-282.771	528.078	1176.285	-285.141	696.827	594.670	-146.753	580.488	548.735	-344.557	650.268	600.427	-159.931	538.728	575.981	-351.376	654.456	524.581	-170.536	504.848	513.520	-344.909	751.050	230.415	-187.597	260.939	174.145	-413.269	704.523	223.182	-194.267	263.164	188.186	-367.246	817.366	73.231	-200.707	341.294	46.410	-313.862
	82	1.05000	470.413	759.604	-269.151	455.160	762.604	-189.221	448.762	764.191	-344.710	611.522	409.794	-208.373	366.816	421.692	-321.894	711.443	64.907	-198.894	246.943	72.363	-303.412	581.767	831.676	-271.610	586.943	830.392	-145.835	576.592	832.959	-397.385	340.957	909.096	-225.853	335.512	911.733	-280.226	621.920	410.562	-137.638	363.343	417.773	-393.202	579.220	395.533	-279.803	361.389	418.724	-237.302	707.538	64.828	-160.593	231.765	75.650	-339.731	710.907	74.231	-236.423	245.669	92.974	-263.035	379.528	1330.753	-259.169	506.489	1257.518	-229.346	500.818	1257.823	-311.246	485.625	1253.082	-281.418	533.761	1176.946	-283.675	701.177	593.988	-145.991	584.687	548.258	-343.604	654.614	600.338	-159.012	543.211	575.842	-351.062	657.833	523.843	-169.638	508.291	512.969	-343.456	753.659	229.693	-187.390	262.648	175.481	-413.370	707.515	222.564	-193.937	265.681	189.153	-367.543	819.113	71.050	-199.542	341.706	46.552	-313.950
	83	1.05833	475.739	759.893	-267.607	460.394	763.044	-187.742	454.130	764.387	-343.239	614.798	409.946	-207.649	370.538	422.028	-321.357	712.570	64.443	-198.640	247.850	73.570	-303.758	587.127	831.883	-270.132	592.191	830.797	-144.415	582.062	832.970	-395.850	346.233	909.619	-224.993	340.908	912.113	-279.356	625.329	410.564	-136.932	367.049	418.321	-392.675	580.600	395.618	-279.028	364.407	420.045	-235.922	708.685	64.343	-160.336	232.705	77.068	-340.071	711.769	73.873	-236.105	247.385	94.133	-263.458	384.803	1330.958	-257.483	511.244	1257.735	-228.077	505.926	1258.384	-309.619	490.785	1253.454	-280.039	538.709	1177.378	-282.445	705.362	593.344	-145.258	588.997	547.855	-342.722	658.375	599.693	-158.108	547.522	575.153	-350.434	660.928	522.758	-169.029	512.153	512.504	-342.421	756.113	228.903	-186.910	264.422	176.882	-413.455	710.370	222.037	-193.147	267.887	190.371	-367.920	820.705	68.837	-198.108	342.126	46.729	-314.045
